<svg width="168" height="56" viewBox="0 0 168 56" fill="none" xmlns="http://www.w3.org/2000/svg"><path d="M146.668 3H20.918c-.458 0-.91 0-1.368.003-.383.002-.762.01-1.149.016-.84.01-1.677.083-2.505.22a8.33 8.33 0 00-2.376.784 8.045 8.045 0 00-4.277 5.879 16.24 16.24 0 00-.224 2.503c-.012.383-.013.767-.019 1.15v28.893c.006.388.007.764.019 1.153.01.838.085 1.675.224 2.502.137.829.4 1.631.781 2.38a7.76 7.76 0 001.473 2.018 7.842 7.842 0 002.023 1.474c.748.38 1.55.646 2.376.788.829.136 1.666.21 2.505.221.387.009.766.014 1.149.014.457.002.91.002 1.368.002h125.75c.449 0 .906 0 1.355-.002.381 0 .772-.005 1.152-.014.838-.01 1.674-.084 2.5-.22a8.509 8.509 0 002.386-.79 7.854 7.854 0 002.021-1.473 7.988 7.988 0 001.477-2.018c.378-.75.639-1.552.774-2.38a16.93 16.93 0 00.232-2.502c.005-.389.005-.765.005-1.153.01-.454.01-.906.01-1.367v-26.16c0-.458 0-.913-.01-1.365 0-.384 0-.768-.005-1.152a16.93 16.93 0 00-.232-2.502 8.28 8.28 0 00-.774-2.38 8.08 8.08 0 00-3.498-3.499 8.464 8.464 0 00-2.386-.784 16.298 16.298 0 00-2.5-.22c-.38-.007-.771-.014-1.152-.017C147.574 3 147.117 3 146.668 3z" fill="#A6A6A6"/><path d="M19.556 51.906c-.38 0-.753-.005-1.13-.013a15.864 15.864 0 01-2.337-.204 7.353 7.353 0 01-2.07-.685 6.759 6.759 0 01-1.747-1.27 6.652 6.652 0 01-1.276-1.746 7.155 7.155 0 01-.678-2.072 15.51 15.51 0 01-.208-2.343c-.008-.264-.019-1.142-.019-1.142V13.556s.011-.865.019-1.118c.01-.785.078-1.567.207-2.34a7.177 7.177 0 01.679-2.078 6.714 6.714 0 011.269-1.748 6.958 6.958 0 011.753-1.278 7.279 7.279 0 012.066-.68 15.733 15.733 0 012.345-.205l1.128-.015h128.46l1.141.016c.779.01 1.555.077 2.323.203a7.414 7.414 0 012.089.685 6.995 6.995 0 013.019 3.025 7.23 7.23 0 01.669 2.061c.129.78.202 1.568.217 2.359.003.354.003.734.003 1.113.01.468.01.915.01 1.364v26.161c0 .454 0 .897-.01 1.344 0 .407 0 .779-.004 1.162a15.918 15.918 0 01-.214 2.317 7.176 7.176 0 01-.675 2.088 6.83 6.83 0 01-1.27 1.732 6.753 6.753 0 01-1.749 1.278 7.318 7.318 0 01-2.085.687c-.772.126-1.553.194-2.336.204-.366.008-.75.013-1.122.013l-1.355.003-127.112-.003z" fill="#000"/><path d="M39.961 28.376a6.186 6.186 0 012.946-5.19 6.332 6.332 0 00-4.99-2.697c-2.098-.22-4.133 1.256-5.203 1.256-1.09 0-2.737-1.234-4.51-1.198a6.645 6.645 0 00-5.592 3.41c-2.417 4.186-.614 10.337 1.702 13.72 1.159 1.657 2.513 3.508 4.284 3.442 1.734-.072 2.382-1.106 4.475-1.106 2.073 0 2.68 1.106 4.488 1.064 1.86-.03 3.033-1.664 4.151-3.336a13.7 13.7 0 001.898-3.866 5.978 5.978 0 01-3.649-5.499zm-3.414-10.112A6.09 6.09 0 0037.94 13.9a6.197 6.197 0 00-4.01 2.075 5.795 5.795 0 00-1.43 4.202 5.123 5.123 0 004.047-1.913zm25.331 18.661H55.96l-1.42 4.195h-2.506l5.604-15.522h2.604l5.604 15.522h-2.549l-1.42-4.195zm-5.304-1.936h4.69l-2.312-6.81h-.065l-2.313 6.81zm21.376.473c0 3.517-1.883 5.777-4.724 5.777a3.836 3.836 0 01-3.56-1.98h-.054v5.605h-2.323v-15.06h2.249v1.881h.042a4.015 4.015 0 013.604-2c2.872 0 4.765 2.27 4.765 5.777zm-2.388 0c0-2.291-1.184-3.797-2.991-3.797-1.775 0-2.969 1.538-2.969 3.797 0 2.28 1.194 3.808 2.969 3.808 1.807 0 2.99-1.496 2.99-3.808zm14.843 0c0 3.517-1.882 5.777-4.722 5.777a3.836 3.836 0 01-3.561-1.98h-.054v5.605h-2.323v-15.06h2.248v1.881h.043a4.014 4.014 0 013.604-2c2.872 0 4.765 2.27 4.765 5.777zm-2.387 0c0-2.291-1.184-3.797-2.991-3.797-1.775 0-2.969 1.538-2.969 3.797 0 2.28 1.194 3.808 2.969 3.808 1.807 0 2.99-1.496 2.99-3.808zm10.62 1.334c.172 1.539 1.667 2.55 3.711 2.55 1.958 0 3.366-1.011 3.366-2.399 0-1.205-.849-1.926-2.861-2.42l-2.012-.485c-2.85-.689-4.173-2.022-4.173-4.185 0-2.678 2.334-4.518 5.648-4.518 3.28 0 5.529 1.84 5.604 4.518h-2.345c-.14-1.549-1.421-2.484-3.292-2.484-1.871 0-3.152.946-3.152 2.323 0 1.097.818 1.743 2.819 2.237l1.71.42c3.185.754 4.508 2.033 4.508 4.303 0 2.904-2.313 4.723-5.992 4.723-3.443 0-5.767-1.776-5.917-4.583h2.378zm14.544-9.671v2.678h2.153v1.84h-2.153v6.239c0 .969.431 1.42 1.377 1.42.256-.004.511-.022.765-.053v1.829a6.425 6.425 0 01-1.291.107c-2.291 0-3.185-.86-3.185-3.055v-6.487h-1.645v-1.84h1.645v-2.678h2.334zm3.399 8.337c0-3.56 2.097-5.798 5.367-5.798 3.282 0 5.369 2.238 5.369 5.798 0 3.57-2.076 5.799-5.369 5.799-3.291 0-5.367-2.228-5.367-5.799zm8.369 0c0-2.442-1.119-3.884-3.002-3.884-1.882 0-3 1.453-3 3.884 0 2.453 1.118 3.883 3 3.883 1.883 0 3.002-1.43 3.002-3.883zm4.282-5.659h2.216v1.927h.054a2.697 2.697 0 012.722-2.045c.267 0 .534.028.796.087v2.173a3.25 3.25 0 00-1.044-.14 2.337 2.337 0 00-2.319 1.607c-.105.32-.14.66-.102.996v6.713h-2.323V29.803zm16.498 7.993c-.313 2.055-2.313 3.465-4.873 3.465-3.292 0-5.336-2.206-5.336-5.745 0-3.55 2.055-5.852 5.238-5.852 3.131 0 5.1 2.15 5.1 5.582v.796h-7.993v.14a2.941 2.941 0 00.799 2.29 2.947 2.947 0 002.246.916 2.558 2.558 0 002.613-1.592h2.206zm-7.853-3.377h5.658a2.717 2.717 0 00-.76-2.043 2.724 2.724 0 00-2.016-.83 2.864 2.864 0 00-2.882 2.873zM56.283 13.914a3.298 3.298 0 013.51 3.706c0 2.383-1.289 3.752-3.51 3.752h-2.694v-7.458h2.694zm-1.536 6.404h1.406a2.344 2.344 0 002.46-2.683 2.352 2.352 0 00-2.46-2.667h-1.406v5.35zm6.353-1.762a2.666 2.666 0 115.31 0 2.668 2.668 0 11-5.31 0zm4.167 0c0-1.22-.548-1.934-1.51-1.934-.966 0-1.509.714-1.509 1.934 0 1.23.543 1.938 1.509 1.938.962 0 1.51-.713 1.51-1.938zm8.199 2.816h-1.152l-1.163-4.145h-.088l-1.159 4.145h-1.141l-1.552-5.628h1.127l1.009 4.295h.083l1.157-4.295h1.065l1.158 4.295h.087l1.004-4.295h1.11l-1.545 5.628zm2.851-5.628h1.069v.894h.083a1.685 1.685 0 011.68-1.003 1.83 1.83 0 011.948 2.094v3.643h-1.11v-3.364c0-.905-.394-1.355-1.215-1.355a1.29 1.29 0 00-1.345 1.427v3.293h-1.11v-5.63zm6.55-2.198h1.11v7.826h-1.11v-7.826zm2.655 5.01a2.666 2.666 0 115.31 0 2.668 2.668 0 11-5.31 0zm4.166 0c0-1.22-.548-1.934-1.51-1.934-.965 0-1.508.714-1.508 1.934 0 1.23.543 1.938 1.508 1.938.962 0 1.51-.713 1.51-1.938zM92 19.78c0-1.012.755-1.597 2.094-1.68l1.525-.087v-.486c0-.595-.393-.93-1.152-.93-.62 0-1.05.227-1.173.625h-1.076c.114-.967 1.023-1.587 2.3-1.587 1.411 0 2.207.703 2.207 1.892v3.845h-1.07v-.79h-.087a1.893 1.893 0 01-1.69.883A1.701 1.701 0 0192 19.781zm3.619-.48v-.47l-1.374.087c-.776.052-1.127.316-1.127.812 0 .506.44.801 1.044.801a1.326 1.326 0 001.457-1.23zm2.566-.745c0-1.778.914-2.905 2.336-2.905a1.857 1.857 0 011.726.988h.083v-3.092h1.111v7.826h-1.064v-.889h-.088a1.95 1.95 0 01-1.768.982c-1.431 0-2.336-1.127-2.336-2.91zm1.147 0c0 1.194.563 1.913 1.504 1.913.937 0 1.515-.729 1.515-1.908 0-1.173-.585-1.912-1.515-1.912-.935 0-1.504.724-1.504 1.907zm8.705.001a2.678 2.678 0 01.681-2.048 2.667 2.667 0 014.628 2.048 2.668 2.668 0 11-5.309 0zm4.166 0c0-1.22-.548-1.934-1.51-1.934-.965 0-1.508.714-1.508 1.934 0 1.23.543 1.938 1.508 1.938.962 0 1.51-.713 1.51-1.938zm2.633-2.812h1.07v.894h.083a1.685 1.685 0 011.679-1.003 1.833 1.833 0 011.949 2.094v3.643h-1.111v-3.364c0-.905-.393-1.355-1.215-1.355a1.29 1.29 0 00-1.344 1.427v3.293h-1.111v-5.63zm11.058-1.402v1.427h1.219v.936h-1.219v2.894c0 .59.242.848.795.848.142 0 .283-.009.424-.026v.926a3.643 3.643 0 01-.604.056c-1.236 0-1.728-.434-1.728-1.52v-3.178h-.893v-.936h.893v-1.427h1.113zm2.736-.796h1.101v3.102h.088a1.735 1.735 0 011.717-1.008 1.854 1.854 0 011.938 2.098v3.634h-1.112v-3.36c0-.899-.419-1.354-1.204-1.354a1.316 1.316 0 00-1.417 1.427v3.287h-1.111v-7.826zm11.321 6.307a2.285 2.285 0 01-2.439 1.628 2.557 2.557 0 01-2.6-2.905 2.604 2.604 0 01.627-2.063 2.593 2.593 0 011.968-.878c1.566 0 2.511 1.07 2.511 2.838v.387h-3.974v.063a1.472 1.472 0 00.393 1.138 1.487 1.487 0 001.106.474 1.348 1.348 0 001.339-.682h1.069zm-3.907-1.814h2.843a1.354 1.354 0 00-.37-1.036 1.362 1.362 0 00-1.016-.422 1.44 1.44 0 00-1.457 1.458z" fill="#fff"/></svg>