<svg width="555" height="555" viewBox="0 0 555 555" fill="none" xmlns="http://www.w3.org/2000/svg"><circle cx="189.572" cy="276.017" r="162.001" fill="url(#paint0_radial_1595_109977)"/><circle cx="206.411" cy="447.018" r="87.318" transform="rotate(-180 206.411 447.018)" fill="url(#paint1_radial_1595_109977)"/><circle cx="379.263" cy="150.31" r="114.508" fill="url(#paint2_radial_1595_109977)"/><g filter="url(#filter0_d_1595_109977)"><path d="M367.668 58.617H219.791c-19.883 0-36 16.118-36 36v340.401c0 19.883 16.117 36 36 36h147.877c19.882 0 36-16.117 36-36v-340.4c0-19.883-16.118-36-36-36z" fill="#EDF3FF" fill-opacity=".01" shape-rendering="crispEdges"/></g><path d="M189.791 94.617c0-16.568 13.431-30 30-30h147.877c16.568 0 30 13.432 30 30v340.401c0 16.569-13.432 30-30 30H219.791c-16.569 0-30-13.431-30-30v-340.4z" fill="url(#paint3_radial_1595_109977)"/><path fill-rule="evenodd" clip-rule="evenodd" d="M219.791 58.617h147.877c19.882 0 36 16.118 36 36v340.401c0 19.883-16.118 36-36 36H219.791c-19.883 0-36-16.117-36-36v-340.4c0-19.883 16.117-36 36-36zm0 6c-16.569 0-30 13.432-30 30v340.401c0 16.569 13.431 30 30 30h147.877c16.568 0 30-13.431 30-30v-340.4c0-16.57-13.432-30-30-30H219.791z" fill="#EDF3FF"/><path fill-rule="evenodd" clip-rule="evenodd" d="M219.791 58.617h147.877c19.882 0 36 16.118 36 36v340.401c0 19.883-16.118 36-36 36H219.791c-19.883 0-36-16.117-36-36v-340.4c0-19.883 16.117-36 36-36zm0 6c-16.569 0-30 13.432-30 30v340.401c0 16.569 13.431 30 30 30h147.877c16.568 0 30-13.431 30-30v-340.4c0-16.57-13.432-30-30-30H219.791z" fill="url(#paint4_linear_1595_109977)"/><path fill-rule="evenodd" clip-rule="evenodd" d="M219.791 471.019h147.877c19.882 0 36-16.118 36-36V94.617c0-19.882-16.118-36-36-36H219.791c-19.883 0-36 16.118-36 36V435.02c0 19.882 16.117 36 36 36zm0-6c-16.569 0-30-13.432-30-30V94.617c0-16.568 13.431-30 30-30h147.877c16.568 0 30 13.432 30 30V435.02c0 16.568-13.432 30-30 30H219.791z" fill="url(#paint5_linear_1595_109977)"/><path d="M189.939 438.018a30.33 30.33 0 01-.148-3V114.016c89.47 0 162.001 72.53 162.001 162.001 0 89.421-72.451 161.921-161.853 162.001z" fill="url(#paint6_linear_1595_109977)"/><path d="M397.668 258.402a110.314 110.314 0 01-18.405 1.538c-60.547 0-109.631-49.083-109.631-109.63 0-34.683 16.106-65.604 41.246-85.693h-7.57c-23.649 20.977-38.553 51.595-38.553 85.693 0 63.241 51.267 114.508 114.508 114.508 6.265 0 12.413-.503 18.405-1.471v-4.945z" fill="url(#paint7_linear_1595_109977)"/><path d="M291.872 465.018a87.697 87.697 0 001.857-18c0-48.224-39.094-87.318-87.318-87.318-5.683 0-11.24.543-16.62 1.58v4.974a82.802 82.802 0 0116.62-1.676c45.531 0 82.441 36.91 82.441 82.44a82.74 82.74 0 01-1.971 18h4.991z" fill="url(#paint8_linear_1595_109977)"/><path opacity=".25" d="M189.791 347.067v-86.736c15.924-31.821 48.825-53.668 86.829-53.668 27.731 0 52.745 11.632 70.429 30.283a162.349 162.349 0 014.743 39.071c0 49.161-21.898 93.208-56.472 122.919a97.547 97.547 0 01-18.7 1.8c-38.004 0-70.905-21.848-86.829-53.669z" fill="#EDF3FF"/><circle opacity=".25" cx="276.62" cy="303.697" r="32.346" fill="#EDF3FF"/><circle cx="276.62" cy="303.698" r="7.641" fill="#fff" stroke="#EDF3FF" stroke-width="2.842"/><path d="M270.613 135.585c-.647 4.816-.98 9.732-.98 14.725 0 50.625 34.314 93.236 80.953 105.841.21 1.721.394 3.45.55 5.187-49.642-12.537-86.381-57.492-86.381-111.028 0-5.867.441-11.631 1.292-17.261 1.537.822 3.059 1.667 4.566 2.536zm-80.822 230.669v-4.974a87.755 87.755 0 0116.62-1.58c34.034 0 63.52 19.471 77.926 47.882a164.817 164.817 0 01-4.044 2.819c-13.485-27.158-41.504-45.823-73.882-45.823-5.693 0-11.252.577-16.62 1.676z" fill="#fff"/><path d="M267.437 76.751a3.022 3.022 0 013.022-3.022h46.54a3.022 3.022 0 010 6.044h-46.54a3.022 3.022 0 01-3.022-3.022z" fill="url(#paint9_linear_1595_109977)"/><path d="M206.411 404.25a9.247 9.247 0 019.247-9.247h157.199a9.247 9.247 0 019.247 9.247v33.521a9.247 9.247 0 01-9.247 9.247H215.658a9.247 9.247 0 01-9.247-9.247V404.25z" fill="#fff"/><path d="M265.36 412.341a4.623 4.623 0 000 9.247h97.094a4.623 4.623 0 000-9.247H265.36z" fill="url(#paint10_radial_1595_109977)"/><path d="M260.737 426.212a2.312 2.312 0 012.311-2.312h24.712a2.312 2.312 0 110 4.624h-24.712a2.312 2.312 0 01-2.311-2.312z" fill="url(#paint11_radial_1595_109977)"/><path d="M293.739 426.212a2.312 2.312 0 012.312-2.312h35.712a2.312 2.312 0 110 4.624h-35.712a2.312 2.312 0 01-2.312-2.312z" fill="url(#paint12_radial_1595_109977)"/><path d="M235.011 414.094a2.38 2.38 0 01.697 1.684v2.859h-4.764v-2.859a2.38 2.38 0 012.382-2.382c.632 0 1.238.251 1.685.698z" fill="url(#paint13_radial_1595_109977)"/><path fill-rule="evenodd" clip-rule="evenodd" d="M233.641 405.324l11.434 1.905a1.906 1.906 0 011.591 1.879v13.34a13.34 13.34 0 11-26.679 0v-13.34a1.906 1.906 0 011.591-1.879l11.434-1.905c.208-.035.421-.035.629 0zm6.75 22.283c.357-.357.558-.842.558-1.347v-5.718a1.906 1.906 0 00-1.906-1.905h-.476v-2.859a5.237 5.237 0 00-5.241-5.24 5.237 5.237 0 00-5.24 5.24v2.859h-.477a1.906 1.906 0 00-1.905 1.905v5.718a1.902 1.902 0 001.905 1.905h11.434c.506 0 .991-.201 1.348-.558z" fill="url(#paint14_radial_1595_109977)"/><path d="M114.22 347.98a2.116 2.116 0 01-2.111-2.115v-23.013c0-1.164.946-2.114 2.111-2.114h27.441c1.165 0 2.111.95 2.111 2.114v9.452c.972.016 1.931.133 2.859.345v-9.793a4.977 4.977 0 00-4.97-4.973h-1.649v-5.505c0-6.657-5.416-12.07-12.073-12.07s-12.07 5.416-12.07 12.07v5.505h-1.649a4.977 4.977 0 00-4.97 4.973v23.012a4.977 4.977 0 004.97 4.973h15.935a13.727 13.727 0 01-.646-2.858h-15.286l-.003-.003zm4.511-35.605c0-5.078 4.131-9.212 9.211-9.212 5.081 0 9.212 4.131 9.212 9.212v5.504h-18.423v-5.504z" fill="#fff"/><path d="M127.943 330.613a2.568 2.568 0 00-2.564 2.567c0 .811.396 1.586 1.06 2.071l.073.053v1.745c0 .788.643 1.43 1.431 1.43s1.431-.642 1.431-1.43v-1.745l.073-.053a2.581 2.581 0 001.063-2.071 2.568 2.568 0 00-2.564-2.567h-.003z" fill="#fff"/><path d="M148.847 351.223l-.373.383a7.35 7.35 0 01-5.302 2.229c-2.017 0-3.786-.747-5.176-2.105a3.824 3.824 0 01-.354-.415 4.334 4.334 0 00-.146-.183c-.81-.979-1.358-2.118-1.586-3.293a7.415 7.415 0 011.963-6.584l.373-.383a7.391 7.391 0 013.644-2.029 7.21 7.21 0 011.598-.171h.108l.326.01c.874.044 1.69.218 2.428.519l.782.32-.845.022a1.432 1.432 0 00-1.393 1.443 1.423 1.423 0 001.43 1.412l5.866-.07-.07-5.849a1.417 1.417 0 00-.43-1.007 1.418 1.418 0 00-.997-.405 1.426 1.426 0 00-1.428 1.447l.013 1.009-.276-.171a10.131 10.131 0 00-1.573-.804c-.133-.053-.269-.091-.411-.133-.086-.025-.171-.047-.257-.076-.085-.028-.174-.057-.259-.088a5.968 5.968 0 00-.611-.187 10.55 10.55 0 00-2.289-.266h-.047c-2.805 0-5.407 1.092-7.344 3.077l-.374.383c-2.209 2.26-3.235 5.369-2.82 8.528.146 1.095.465 2.158.953 3.159a10.23 10.23 0 002.038 2.836 10.217 10.217 0 007.173 2.919c2.7 0 5.404-1.099 7.347-3.09l.374-.383a10.168 10.168 0 002.909-7.344l-2.868.035a7.324 7.324 0 01-2.086 5.315l-.01-.01zm7.057-121.867c-.089-.007-3.317-.314-5.058-2.428-.371-.453-.934-.678-1.501-.678-.563 0-1.13.225-1.497.674-1.757 2.137-5.03 2.428-5.052 2.432-.649.047-1.178.43-1.494.952-.177.295-.307.618-.307.982 0 .911.063 1.747.155 2.545.76 6.736 4.431 9.632 6.644 10.645.728.336 1.304.475 1.554.478.466 0 .921-.187 1.453-.427 2.102-.953 6.898-4.125 6.898-13.241 0-1.01-.788-1.858-1.792-1.934h-.003zm-5.907 12.361a5.796 5.796 0 01-.63.288c-1.117-.409-5.055-2.362-5.441-9.569-.006-.108-.019-.206-.022-.317 1.263-.231 3.605-.871 5.438-2.57 1.83 1.699 4.175 2.339 5.438 2.57-.24 6.401-3.247 8.79-4.786 9.601l.003-.003z" fill="#4687FF"/><path d="M149.532 247.855l.184-.023.367-.047h-1.396c.241.041.465.07.659.07h.186z" fill="#fff"/><path d="M139.044 247.785c-.199-7.515-1.931-13.849-4.593-17.654 1.285.415 2.51.963 3.669 1.615 0-.155-.019-.298-.019-.456 0-.899.259-1.741.693-2.469a22.797 22.797 0 00-10.468-2.548c-12.662 0-22.962 10.3-22.962 22.962 0 12.662 10.3 22.962 22.962 22.962 12.662 0 22.962-10.3 22.962-22.962 0-.491-.038-.969-.073-1.45h-12.171zm-10.718-18.616c3.561 0 7.502 7.578 7.825 18.619h-15.65c.323-11.038 4.264-18.619 7.825-18.619zm-6.125.966c-2.662 3.804-4.394 10.138-4.593 17.653h-9.275c.595-8.29 6.233-15.2 13.868-17.653zm-13.868 20.55h9.275c.199 7.514 1.931 13.848 4.593 17.653-7.635-2.453-13.273-9.363-13.868-17.653zm19.993 18.616c-3.561 0-7.502-7.578-7.825-18.616h15.65c-.323 11.038-4.264 18.616-7.825 18.616zm6.125-.963c2.662-3.805 4.394-10.139 4.593-17.653h9.275c-.595 8.29-6.233 15.2-13.868 17.653z" fill="#fff"/><path d="M138.006 191.612l-.75-2.801-1.763-6.581-.767-2.865-3.656-13.646-.766-2.862-1.703-6.356-.756-2.82-1.33-4.957a1.408 1.408 0 00-1.731-1.001 1.412 1.412 0 00-1 1.732l1.272 4.745.747 2.789 1.766 6.596.766 2.865 3.657 13.646.766 2.862 1.703 6.353.756 2.823 1.33 4.958a1.41 1.41 0 001.731 1 1.412 1.412 0 001-1.732l-1.272-4.745v-.003z" fill="#4687FF"/><path d="M157.056 172.494c-.057-.19-5.939-19.047-25.526-19.047-.279 0-.542.016-.814.025l.769 2.871h.045c16.061 0 21.677 13.878 22.614 16.562-.744 2.07-4.575 11.389-14.182 15.068l.754 2.814c12.301-4.54 16.292-17.306 16.34-17.461a1.49 1.49 0 000-.832zm-25.526 16.982c-16.074 0-21.686-13.897-22.614-16.568.744-2.137 4.489-11.446 14.178-15.09l-.747-2.786c-12.301 4.54-16.293 17.306-16.34 17.461-.079.272-.079.56 0 .833.057.19 5.938 19.046 25.526 19.046.279 0 .541-.016.814-.025l-.77-2.871h-.047z" fill="#fff"/><path d="M138.009 180.689a10.121 10.121 0 003.653-7.781c0-4.998-3.64-9.151-8.407-9.974l.867 3.238c2.709 1.045 4.647 3.659 4.647 6.736 0 1.719-.627 3.276-1.63 4.517l.873 3.261-.003.003zm-12.96-15.562a10.12 10.12 0 00-3.653 7.781c0 4.998 3.641 9.151 8.408 9.974l-.867-3.238c-2.71-1.045-4.647-3.66-4.647-6.736 0-1.719.626-3.277 1.63-4.521l-.874-3.26h.003zm-13.236-78.79a2.394 2.394 0 012.39-2.39h32.693a2.394 2.394 0 012.39 2.39v2.602h2.83v-2.602a5.227 5.227 0 00-5.22-5.22h-32.693a5.226 5.226 0 00-5.219 5.22v21.417h30.454v-2.83h-27.625V86.337zm-8.391 26.096c0 .782.633 1.415 1.415 1.415h34.598v-2.83h-34.598c-.782 0-1.415.633-1.415 1.415z" fill="#fff"/><path d="M155.953 91.77h-9.996c-2.033 0-3.688 1.823-3.688 4.067v19.658c0 2.244 1.652 4.067 3.688 4.067h9.996c2.032 0 3.688-1.823 3.688-4.067V95.837c0-2.241-1.656-4.068-3.688-4.068zm1.137 23.725c0 .823-.52 1.516-1.137 1.516h-9.996c-.618 0-1.137-.697-1.137-1.516V95.837c0-.823.519-1.516 1.137-1.516h9.996c.617 0 1.137.693 1.137 1.516v19.658z" fill="#4687FF"/><path d="M151.448 111.018a1.597 1.597 0 00-.753-.206c-.276 0-.526.085-.754.206a1.636 1.636 0 00-.899 1.449c0 .592.33 1.086.795 1.38.253.159.538.276.858.276.32 0 .604-.117.858-.276.468-.291.794-.788.794-1.38a1.64 1.64 0 00-.899-1.449z" fill="#4687FF"/><path d="M465.347 150.702c0 47.544-38.541 86.085-86.084 86.085-47.543 0-86.084-38.541-86.084-86.085 0-47.543 38.541-86.085 86.084-86.085 47.543 0 86.084 38.542 86.084 86.085z" fill="#fff"/><path d="M352.94 140.886h14.304v-10.992H352.94v-14.605h-11.217v14.605h-14.681v10.992h14.681v14.68h11.217v-14.68zm64.016 4.968c0-6.323-2.559-10.615-9.184-13.4 4.667-2.484 8.055-6.399 8.055-12.497 0-10.389-8.206-17.014-20.251-17.014-9.034 0-18.896 4.065-21.606 15.433l11.518 2.861c1.731-5.421 5.721-7.152 9.636-7.152 5.646 0 8.432 2.785 8.432 6.549 0 3.539-2.861 6.776-8.432 6.776h-5.797v11.368h6.475c6.399 0 8.808 2.559 8.808 6.851 0 3.613-3.614 6.775-8.808 6.775-5.872 0-9.561-3.388-10.766-8.883l-11.669 2.86c1.732 11.142 11.067 17.24 21.908 17.24 12.497 0 21.681-7.98 21.681-17.767zm-77.036 41.32c1.434 0 1.95.986 1.95 2.287v6.679h3.497v-7.464c0-2.735-1.278-4.775-4.215-4.775-1.726 0-2.846.65-3.967 1.906-.695-1.323-2.062-1.906-3.497-1.906-1.367 0-2.802.628-3.497 1.839h-.045v-1.57h-3.429v11.97h3.496v-6.635c0-1.367.695-2.331 2.13-2.331s1.95 1.031 1.95 2.331v6.635h3.475v-6.679c0-1.368.739-2.287 2.152-2.287zm7.729 3.004c0 3.609 2.892 6.231 6.523 6.231 3.609 0 6.546-2.689 6.546-6.298 0-3.565-2.892-6.21-6.501-6.21-3.631 0-6.568 2.713-6.568 6.277zm3.587-.045c0-1.793 1.3-3.049 2.936-3.049 1.637 0 2.959 1.256 2.959 3.049 0 1.816-1.3 3.071-2.936 3.071-1.637 0-2.959-1.255-2.959-3.071zm13.792 6.276a2.425 2.425 0 002.42-2.42c0-1.345-1.053-2.444-2.42-2.444-1.345 0-2.421 1.099-2.421 2.444a2.44 2.44 0 002.421 2.42zm13.646-14.368h7.935v-3.452h-11.567v17.551h3.632v-6.926h7.105v-3.452h-7.105v-3.721zm24.4 14.099l-3.721-6.971c1.95-.784 3.295-2.421 3.295-5.021 0-3.721-2.802-5.559-6.209-5.559h-6.926v17.551h3.631v-6.298h2.645l3.34 6.298h3.945zm-9.93-14.122h3.004c1.367 0 2.824.516 2.824 2.197 0 1.659-1.457 2.264-2.802 2.264h-3.026v-4.461zm12.678 14.122h11.544v-3.384h-7.957v-3.789h7.083v-3.407h-7.083v-3.564h7.912v-3.407h-11.499v17.551zm14.777 0h11.544v-3.384h-7.957v-3.789h7.083v-3.407h-7.083v-3.564h7.912v-3.407h-11.499v17.551z" fill="#060D19"/><defs><radialGradient id="paint1_radial_1595_109977" cx="0" cy="0" r="1" gradientUnits="userSpaceOnUse" gradientTransform="rotate(103.99 24.643 252.334) scale(285.58 168.098)"><stop stop-color="#3E495F"/><stop offset="1" stop-color="#364054"/></radialGradient><radialGradient id="paint13_radial_1595_109977" cx="0" cy="0" r="1" gradientUnits="userSpaceOnUse" gradientTransform="rotate(106.74 -10.044 280.18) scale(88.9065 55.2398)"><stop stop-color="#fff"/><stop offset="1" stop-color="#C9D3E8"/></radialGradient><radialGradient id="paint2_radial_1595_109977" cx="0" cy="0" r="1" gradientUnits="userSpaceOnUse" gradientTransform="matrix(-90.53802 363.39835 -213.90324 -53.29241 469.8 -56.355)"><stop stop-color="#3E495F"/><stop offset="1" stop-color="#364054"/></radialGradient><radialGradient id="paint3_radial_1595_109977" cx="0" cy="0" r="1" gradientUnits="userSpaceOnUse" gradientTransform="matrix(-82.18032 635.34917 -202.81741 -26.23376 375.909 -96.506)"><stop stop-color="#38496A"/><stop offset="1" stop-color="#131822"/></radialGradient><radialGradient id="paint0_radial_1595_109977" cx="0" cy="0" r="1" gradientUnits="userSpaceOnUse" gradientTransform="rotate(103.99 165.223 115.931) scale(529.837 311.872)"><stop stop-color="#38496A"/><stop offset="1" stop-color="#131822"/></radialGradient><radialGradient id="paint10_radial_1595_109977" cx="0" cy="0" r="1" gradientUnits="userSpaceOnUse" gradientTransform="matrix(-53.17152 152.67923 -133.82487 -46.60537 313.907 378.18)"><stop stop-color="#fff"/><stop offset="1" stop-color="#C9D3E8"/></radialGradient><radialGradient id="paint11_radial_1595_109977" cx="0" cy="0" r="1" gradientUnits="userSpaceOnUse" gradientTransform="matrix(-53.17152 152.67923 -133.82487 -46.60537 313.907 378.18)"><stop stop-color="#fff"/><stop offset="1" stop-color="#C9D3E8"/></radialGradient><radialGradient id="paint12_radial_1595_109977" cx="0" cy="0" r="1" gradientUnits="userSpaceOnUse" gradientTransform="matrix(-53.17152 152.67923 -133.82487 -46.60537 313.907 378.18)"><stop stop-color="#fff"/><stop offset="1" stop-color="#C9D3E8"/></radialGradient><radialGradient id="paint14_radial_1595_109977" cx="0" cy="0" r="1" gradientUnits="userSpaceOnUse" gradientTransform="rotate(106.74 -10.044 280.18) scale(88.9065 55.2398)"><stop stop-color="#fff"/><stop offset="1" stop-color="#C9D3E8"/></radialGradient><linearGradient id="paint8_linear_1595_109977" x1="216.634" y1="497.946" x2="276.364" y2="398.396" gradientUnits="userSpaceOnUse"><stop stop-color="#2B75FF"/><stop offset="1" stop-color="#2BA6FF"/></linearGradient><linearGradient id="paint9_linear_1595_109977" x1="293.729" y1="73.729" x2="293.729" y2="79.773" gradientUnits="userSpaceOnUse"><stop stop-color="#fff"/><stop offset="1" stop-color="#EDF3FF"/></linearGradient><linearGradient id="paint4_linear_1595_109977" x1="293.729" y1="58.617" x2="293.729" y2="64.624" gradientUnits="userSpaceOnUse"><stop stop-color="#fff"/><stop offset="1" stop-color="#fff" stop-opacity="0"/></linearGradient><linearGradient id="paint5_linear_1595_109977" x1="293.729" y1="471.019" x2="293.729" y2="461.917" gradientUnits="userSpaceOnUse"><stop stop-color="#fff" stop-opacity="0"/><stop offset=".649" stop-color="#fff"/><stop offset="1" stop-color="#fff" stop-opacity="0"/></linearGradient><linearGradient id="paint6_linear_1595_109977" x1="208.757" y1="370.503" x2="319.574" y2="185.808" gradientUnits="userSpaceOnUse"><stop stop-color="#2B75FF"/><stop offset="1" stop-color="#2BA6FF"/></linearGradient><linearGradient id="paint7_linear_1595_109977" x1="392.669" y1="217.096" x2="470.998" y2="86.547" gradientUnits="userSpaceOnUse"><stop stop-color="#2B75FF"/><stop offset="1" stop-color="#2BA6FF"/></linearGradient><filter id="filter0_d_1595_109977" x="153.791" y="52.617" width="255.877" height="448.401" filterUnits="userSpaceOnUse" color-interpolation-filters="sRGB"><feFlood flood-opacity="0" result="BackgroundImageFix"/><feColorMatrix in="SourceAlpha" values="0 0 0 0 0 0 0 0 0 0 0 0 0 0 0 0 0 0 127 0" result="hardAlpha"/><feOffset dx="-12" dy="12"/><feGaussianBlur stdDeviation="9"/><feComposite in2="hardAlpha" operator="out"/><feColorMatrix values="0 0 0 0 0 0 0 0 0 0 0 0 0 0 0 0 0 0 0.25 0"/><feBlend in2="BackgroundImageFix" result="effect1_dropShadow_1595_109977"/><feBlend in="SourceGraphic" in2="effect1_dropShadow_1595_109977" result="shape"/></filter></defs></svg>