<svg width="555" height="555" viewBox="0 0 555 555" fill="none" xmlns="http://www.w3.org/2000/svg"><circle cx="211.416" cy="223.498" r="154.719" fill="url(#paint0_radial_1676_174424)"/><circle cx="354.524" cy="391.615" r="89.376" transform="rotate(-180 354.524 391.615)" fill="url(#paint1_radial_1676_174424)"/><circle cx="443.092" cy="165.325" r="106.546" fill="url(#paint2_radial_1676_174424)"/><g filter="url(#filter0_d_1676_174424)"><path fill-rule="evenodd" clip-rule="evenodd" d="M499.474 406.676H88.322V158.065c0-12.703 10.297-23 23-23h365.152c12.702 0 23 10.297 23 23v248.611z" fill="#EDF3FF" fill-opacity=".01" shape-rendering="crispEdges"/></g><path d="M95.322 158.065c0-8.837 7.163-16 16-16h365.152c8.836 0 16 7.163 16 16v244.611H95.322V158.065z" fill="url(#paint3_radial_1676_174424)"/><path fill-rule="evenodd" clip-rule="evenodd" d="M499.474 406.676H88.322V158.065c0-12.703 10.297-23 23-23h365.152c12.702 0 23 10.297 23 23v248.611zM111.322 142.065c-8.837 0-16 7.163-16 16v241.611h397.152V158.065c0-8.837-7.164-16-16-16H111.322z" fill="#EDF3FF"/><path fill-rule="evenodd" clip-rule="evenodd" d="M499.474 406.676H88.322V158.065c0-12.703 10.297-23 23-23h365.152c12.702 0 23 10.297 23 23v248.611zM111.322 142.065c-8.837 0-16 7.163-16 16v241.611h397.152V158.065c0-8.837-7.164-16-16-16H111.322z" fill="url(#paint4_linear_1676_174424)"/><path d="M211.416 378.217c85.449 0 154.719-69.27 154.719-154.718 0-29.88-8.47-57.781-23.14-81.434H111.322c-8.837 0-16 7.163-16 16v167.711c28.351 32.156 69.854 52.441 116.094 52.441z" fill="url(#paint5_linear_1676_174424)"/><path d="M492.474 254.604c-14.632 8.111-31.467 12.728-49.382 12.728-56.337 0-102.007-45.67-102.007-102.007 0-7.683.849-15.167 2.459-22.364l-.548-.896h-3.903a106.93 106.93 0 00-2.546 23.26c0 58.844 47.702 106.546 106.545 106.546 17.821 0 34.62-4.375 49.382-12.11v-5.157z" fill="url(#paint6_linear_1676_174424)"/><path d="M443.223 402.676c.447-3.624.677-7.315.677-11.06 0-49.361-40.015-89.376-89.376-89.376-49.361 0-89.376 40.015-89.376 89.376 0 3.745.231 7.436.678 11.06h5.033a85.139 85.139 0 01-.718-11.06c0-46.604 37.78-84.384 84.383-84.384 46.604 0 84.384 37.78 84.384 84.384 0 3.749-.245 7.441-.719 11.06h5.034z" fill="url(#paint7_linear_1676_174424)"/><path opacity=".25" d="M95.322 325.776V204.804c19.158-21.005 46.749-34.185 77.419-34.185 57.857 0 104.759 46.902 104.759 104.759 0 49.769-34.706 91.431-81.236 102.107-40.105-3.898-75.725-23.108-100.942-51.709z" fill="#EDF3FF"/><circle opacity=".25" cx="172.741" cy="275.376" r="34.919" fill="#EDF3FF"/><circle cx="172.741" cy="275.376" r="8.249" fill="#fff" stroke="#EDF3FF" stroke-width="3.068"/><path d="M343.545 142.959a102.358 102.358 0 00-2.46 22.366c0 25.497 9.355 48.809 24.819 66.692a155.448 155.448 0 01-.466 6.259c-17.916-19.064-28.891-44.726-28.891-72.951 0-7.989.879-15.773 2.546-23.26h4.657s-.169.732-.205.894zm.737 159.861c-36.378 4.15-66.123 30.14-75.802 64.534a152.725 152.725 0 006.003-2.532c9.796-29.275 35.203-51.398 66.337-56.483a155.208 155.208 0 003.462-5.519z" fill="#fff"/><path d="M43.24 409.25c0-7.683 6.228-13.911 13.91-13.911h472.308c7.682 0 13.91 6.228 13.91 13.911H43.24z" fill="#EDF3FF"/><path d="M43.24 409.25c0-7.683 6.228-13.911 13.91-13.911h472.308c7.682 0 13.91 6.228 13.91 13.911H43.24z" fill="url(#paint8_linear_1676_174424)"/><path d="M242.084 395.339a6.203 6.203 0 006.204 6.204h90.032a6.203 6.203 0 006.204-6.204h-102.44z" fill="#BDD4FF"/><path d="M25.775 371.745c-.998 0-1.81-.814-1.81-1.812v-19.72c0-.999.812-1.812 1.81-1.812H49.29c.998 0 1.81.813 1.81 1.812v8.099c.832.014 1.654.114 2.449.296v-8.393a4.264 4.264 0 00-4.259-4.261h-1.413v-4.717c0-5.705-4.641-10.343-10.346-10.343-5.704 0-10.343 4.641-10.343 10.343v4.717h-1.413a4.264 4.264 0 00-4.259 4.261v19.72c0 2.35 1.91 4.262 4.259 4.262H39.43a11.745 11.745 0 01-.553-2.45h-13.1l-.002-.002zm3.865-30.511c0-4.351 3.54-7.893 7.894-7.893s7.893 3.54 7.893 7.893v4.717H29.64v-4.717z" fill="#fff"/><path d="M37.535 356.863a2.201 2.201 0 00-2.197 2.2c0 .695.339 1.359.908 1.774l.063.046v1.495c0 .675.55 1.226 1.226 1.226.675 0 1.226-.551 1.226-1.226v-1.495l.062-.046c.57-.415.911-1.079.911-1.774a2.2 2.2 0 00-2.197-2.2h-.002z" fill="#fff"/><path d="M55.448 374.524l-.32.329a6.299 6.299 0 01-4.544 1.909 6.207 6.207 0 01-4.435-1.804c-.116-.113-.211-.236-.303-.355a3.37 3.37 0 00-.125-.157 6.35 6.35 0 01-1.36-2.821 6.354 6.354 0 011.683-5.642l.32-.329a6.328 6.328 0 013.122-1.738c.428-.098.89-.147 1.37-.147h.092l.28.008a6.367 6.367 0 012.08.445l.67.274-.724.019a1.228 1.228 0 00-1.194 1.237 1.22 1.22 0 001.226 1.21l5.026-.06-.06-5.013a1.213 1.213 0 00-.368-.862 1.216 1.216 0 00-.855-.347 1.216 1.216 0 00-.876.369 1.208 1.208 0 00-.347.87l.01.866-.235-.147a8.702 8.702 0 00-1.348-.689c-.114-.046-.23-.079-.353-.114-.073-.021-.146-.04-.22-.065a6.491 6.491 0 01-.222-.076 5.4 5.4 0 00-.524-.16 9.123 9.123 0 00-1.96-.228h-.041c-2.404 0-4.633.936-6.293 2.637l-.32.328c-1.894 1.937-2.773 4.601-2.417 7.308.124.938.398 1.85.816 2.707a8.754 8.754 0 007.894 4.931c2.313 0 4.63-.941 6.295-2.647l.32-.329a8.706 8.706 0 002.493-6.293l-2.457.03a6.273 6.273 0 01-1.788 4.555l-.008-.009zm6.047-104.43c-.076-.006-2.843-.269-4.335-2.081-.317-.388-.8-.58-1.285-.58-.483 0-.969.192-1.283.577-1.506 1.831-4.31 2.081-4.33 2.084-.556.04-1.009.369-1.28.816-.152.252-.263.529-.263.841 0 .781.054 1.497.133 2.181.65 5.772 3.797 8.254 5.693 9.122.624.288 1.118.407 1.332.41.399 0 .79-.16 1.245-.367 1.801-.816 5.91-3.534 5.91-11.346 0-.865-.674-1.592-1.534-1.657h-.003zm-5.062 10.592a5.04 5.04 0 01-.54.247c-.957-.35-4.331-2.024-4.662-8.2-.006-.092-.017-.176-.02-.271 1.083-.198 3.09-.746 4.66-2.203 1.569 1.457 3.579 2.005 4.66 2.203-.205 5.484-2.782 7.532-4.1 8.227l.002-.003z" fill="#4687FF"/><path d="M47.047 285.886c-.17-6.44-1.654-11.867-3.935-15.128 1.1.356 2.15.825 3.143 1.384 0-.133-.016-.255-.016-.391 0-.77.222-1.492.594-2.116a19.542 19.542 0 00-8.97-2.183c-10.85 0-19.677 8.826-19.677 19.676 0 10.85 8.827 19.677 19.677 19.677s19.676-8.827 19.676-19.677c0-.42-.032-.83-.062-1.242h-10.43zm-9.184-15.952c3.051 0 6.428 6.493 6.705 15.955h-13.41c.276-9.459 3.653-15.955 6.705-15.955zm-5.249.827c-2.281 3.26-3.765 8.688-3.936 15.128H20.73c.51-7.104 5.341-13.026 11.884-15.128zm-11.884 17.61h7.948c.171 6.439 1.655 11.867 3.936 15.127-6.543-2.102-11.374-8.023-11.884-15.127zm17.133 15.952c-3.052 0-6.429-6.494-6.706-15.952h13.411c-.277 9.458-3.654 15.952-6.705 15.952zm5.248-.825c2.282-3.26 3.766-8.688 3.936-15.127h7.948c-.51 7.104-5.34 13.025-11.883 15.127z" fill="#fff"/><path d="M46.158 237.751l-.643-2.401-1.511-5.639-.657-2.455-3.133-11.694-.656-2.452-1.46-5.447-.648-2.416-1.139-4.248a1.208 1.208 0 00-1.484-.857 1.21 1.21 0 00-.857 1.483l1.09 4.066.64 2.39 1.514 5.653.657 2.455 3.133 11.694.656 2.452 1.46 5.444.648 2.419 1.14 4.248a1.209 1.209 0 001.483.857 1.21 1.21 0 00.857-1.483l-1.09-4.067v-.002z" fill="#4687FF"/><path d="M62.482 221.368c-.049-.163-5.089-16.322-21.874-16.322-.239 0-.464.014-.697.022l.659 2.46h.038c13.763 0 18.575 11.892 19.378 14.192-.637 1.774-3.92 9.76-12.152 12.912l.646 2.411c10.54-3.889 13.961-14.829 14.002-14.962.068-.233.068-.48 0-.713zM40.608 235.92c-13.774 0-18.583-11.908-19.378-14.198.637-1.831 3.846-9.808 12.15-12.93l-.64-2.387c-10.542 3.89-13.962 14.829-14.003 14.962-.068.233-.068.48 0 .714.05.162 5.089 16.321 21.874 16.321.239 0 .464-.014.697-.022l-.659-2.46h-.041z" fill="#fff"/><path d="M46.16 228.39a8.672 8.672 0 003.13-6.668c0-4.283-3.119-7.841-7.204-8.547l.743 2.775c2.322.895 3.982 3.136 3.982 5.772 0 1.473-.537 2.808-1.397 3.871l.75 2.794-.004.003zm-11.105-13.335a8.671 8.671 0 00-3.13 6.667c0 4.283 3.12 7.842 7.204 8.547l-.743-2.775c-2.322-.895-3.982-3.135-3.982-5.772 0-1.473.537-2.807 1.397-3.873l-.749-2.794h.003zm-11.342-67.517c0-1.129.92-2.048 2.048-2.048h28.015c1.128 0 2.048.919 2.048 2.048v2.23h2.425v-2.23a4.479 4.479 0 00-4.473-4.473H25.76a4.479 4.479 0 00-4.473 4.473v18.353h26.097v-2.425H23.713v-15.928zM16.522 169.9c0 .67.542 1.213 1.212 1.213h29.648v-2.425H17.734c-.67 0-1.212.542-1.212 1.212z" fill="#fff"/><path d="M61.537 152.193h-8.566c-1.741 0-3.16 1.563-3.16 3.486v16.845c0 1.923 1.416 3.485 3.16 3.485h8.566c1.742 0 3.16-1.562 3.16-3.485v-16.845c0-1.921-1.419-3.486-3.16-3.486zm.974 20.331c0 .705-.445 1.299-.974 1.299h-8.566c-.529 0-.974-.597-.974-1.299v-16.845c0-.705.445-1.299.974-1.299h8.566c.529 0 .974.594.974 1.299v16.845z" fill="#4687FF"/><path d="M57.677 168.688a1.366 1.366 0 00-.646-.177c-.236 0-.45.073-.645.177a1.4 1.4 0 00-.77 1.242c0 .507.281.93.68 1.183.217.135.461.236.735.236.274 0 .518-.101.735-.236.402-.25.681-.676.681-1.183 0-.545-.32-1.006-.77-1.242z" fill="#4687FF"/><path d="M523.19 165.69c0 44.237-35.861 80.099-80.098 80.099s-80.098-35.862-80.098-80.099c0-44.238 35.861-80.1 80.098-80.1s80.098 35.862 80.098 80.1z" fill="#fff"/><path d="M418.6 156.555h13.309v-10.227H418.6v-13.589h-10.437v13.589h-13.66v10.227h13.66v13.66H418.6v-13.66zm59.565 4.624c0-5.884-2.382-9.877-8.546-12.469 4.343-2.312 7.495-5.954 7.495-11.628 0-9.667-7.635-15.831-18.843-15.831-8.406 0-17.582 3.783-20.104 14.36l10.718 2.662c1.611-5.044 5.323-6.655 8.966-6.655 5.253 0 7.845 2.592 7.845 6.094 0 3.293-2.662 6.305-7.845 6.305h-5.394v10.577h6.024c5.954 0 8.196 2.382 8.196 6.375 0 3.362-3.362 6.304-8.196 6.304-5.464 0-8.896-3.152-10.017-8.266l-10.857 2.662c1.611 10.367 10.297 16.041 20.384 16.041 11.628 0 20.174-7.425 20.174-16.531zm-71.68 38.447c1.335 0 1.814.918 1.814 2.127v6.216h3.254v-6.946c0-2.544-1.189-4.442-3.921-4.442-1.606 0-2.649.605-3.692 1.773-.646-1.231-1.919-1.773-3.254-1.773-1.272 0-2.607.584-3.253 1.71h-.042v-1.46H394.2v11.138h3.254v-6.174c0-1.272.646-2.169 1.981-2.169s1.815.959 1.815 2.169v6.174h3.232v-6.216c0-1.272.689-2.127 2.003-2.127zm7.192 2.795c0 3.358 2.691 5.798 6.069 5.798 3.358 0 6.091-2.503 6.091-5.861 0-3.316-2.691-5.777-6.049-5.777-3.379 0-6.111 2.524-6.111 5.84zm3.337-.042c0-1.668 1.21-2.836 2.732-2.836 1.523 0 2.754 1.168 2.754 2.836 0 1.69-1.21 2.858-2.733 2.858-1.522 0-2.753-1.168-2.753-2.858zm12.833 5.84a2.256 2.256 0 002.252-2.252c0-1.252-.98-2.274-2.252-2.274a2.261 2.261 0 00-2.253 2.274 2.27 2.27 0 002.253 2.252zm12.697-13.369h7.384v-3.212h-10.763v16.331h3.379v-6.445h6.612v-3.212h-6.612v-3.462zm22.704 13.119l-3.462-6.487c1.814-.73 3.066-2.252 3.066-4.672 0-3.462-2.607-5.172-5.778-5.172h-6.444v16.331h3.378v-5.861h2.462l3.107 5.861h3.671zm-9.24-13.14h2.795c1.273 0 2.628.48 2.628 2.044 0 1.543-1.355 2.106-2.607 2.106h-2.816v-4.15zm11.797 13.14h10.741v-3.15h-7.404v-3.524h6.591v-3.171h-6.591v-3.316h7.362v-3.17h-10.699v16.331zm13.749 0h10.742v-3.15h-7.405v-3.524h6.591v-3.171h-6.591v-3.316h7.363v-3.17h-10.7v16.331z" fill="#060D19"/><defs><linearGradient id="paint4_linear_1676_174424" x1="293.898" y1="135.065" x2="293.898" y2="141.237" gradientUnits="userSpaceOnUse"><stop stop-color="#fff"/><stop offset="1" stop-color="#fff" stop-opacity="0"/></linearGradient><linearGradient id="paint5_linear_1676_174424" x1="162.209" y1="369.511" x2="281.054" y2="168.703" gradientUnits="userSpaceOnUse"><stop stop-color="#2B75FF"/><stop offset="1" stop-color="#2BA6FF"/></linearGradient><linearGradient id="paint6_linear_1676_174424" x1="455.567" y1="227.467" x2="528.449" y2="105.996" gradientUnits="userSpaceOnUse"><stop stop-color="#2B75FF"/><stop offset="1" stop-color="#2BA6FF"/></linearGradient><linearGradient id="paint7_linear_1676_174424" x1="364.988" y1="443.743" x2="426.126" y2="341.848" gradientUnits="userSpaceOnUse"><stop stop-color="#2B75FF"/><stop offset="1" stop-color="#2BA6FF"/></linearGradient><linearGradient id="paint8_linear_1676_174424" x1="293.304" y1="395.339" x2="293.304" y2="406.662" gradientUnits="userSpaceOnUse"><stop stop-color="#fff"/><stop offset="1" stop-color="#fff" stop-opacity="0"/></linearGradient><radialGradient id="paint0_radial_1676_174424" cx="0" cy="0" r="1" gradientUnits="userSpaceOnUse" gradientTransform="rotate(103.99 188.651 102.529) scale(506.019 297.852)"><stop stop-color="#38496A"/><stop offset="1" stop-color="#131822"/></radialGradient><radialGradient id="paint1_radial_1676_174424" cx="0" cy="0" r="1" gradientUnits="userSpaceOnUse" gradientTransform="rotate(103.99 122.61 281.281) scale(292.31 172.06)"><stop stop-color="#3E495F"/><stop offset="1" stop-color="#364054"/></radialGradient><radialGradient id="paint2_radial_1676_174424" cx="0" cy="0" r="1" gradientUnits="userSpaceOnUse" gradientTransform="rotate(103.99 274.204 192.551) scale(348.465 205.113)"><stop stop-color="#3E495F"/><stop offset="1" stop-color="#364054"/></radialGradient><radialGradient id="paint3_radial_1676_174424" cx="0" cy="0" r="1" gradientUnits="userSpaceOnUse" gradientTransform="matrix(-88.71994 688.76146 -218.98673 -28.20786 382.617 -32.603)"><stop stop-color="#38496A"/><stop offset="1" stop-color="#131822"/></radialGradient><filter id="filter0_d_1676_174424" x="55.934" y="128.587" width="450.017" height="310.476" filterUnits="userSpaceOnUse" color-interpolation-filters="sRGB"><feFlood flood-opacity="0" result="BackgroundImageFix"/><feColorMatrix in="SourceAlpha" values="0 0 0 0 0 0 0 0 0 0 0 0 0 0 0 0 0 0 127 0" result="hardAlpha"/><feOffset dx="-12.955" dy="12.955"/><feGaussianBlur stdDeviation="9.716"/><feComposite in2="hardAlpha" operator="out"/><feColorMatrix values="0 0 0 0 0 0 0 0 0 0 0 0 0 0 0 0 0 0 0.25 0"/><feBlend in2="BackgroundImageFix" result="effect1_dropShadow_1676_174424"/><feBlend in="SourceGraphic" in2="effect1_dropShadow_1676_174424" result="shape"/></filter></defs></svg>